<svg xmlns="http://www.w3.org/2000/svg" width="46" height="36" viewBox="0 0 46 36"><g><g><path fill="#358de6" d="M42.873 28.55A6.049 6.049 0 0 1 46 33.855v.613A1.534 1.534 0 0 1 44.467 36H1.533A1.535 1.535 0 0 1 0 34.468v-.61a6.065 6.065 0 0 1 3.167-5.33l5.1-3.196a1.71 1.71 0 0 0 .933-1.466v-2.098a11.595 11.595 0 0 1-2.828-4.818l-.006-.005a2.724 2.724 0 0 1-1-2.112v-2.647c.021-.67.295-1.306.766-1.783h.001V6.896c.021-.334.57-6.894 8.433-6.894a9.902 9.902 0 0 1 4.232.848A9.964 9.964 0 0 1 23 .002a10.033 10.033 0 0 1 4.223.852 9.959 9.959 0 0 1 4.21-.852c6.34 0 8.288 4.483 8.432 6.854l.005 3.557c.471.473.744 1.108.763 1.775v2.642a2.734 2.734 0 0 1-.987 2.107l-.024.029a11.496 11.496 0 0 1-2.822 4.798v2.104c.016.607.358 1.157.895 1.44zM27.6 34.468v-.61c0-1.662-.908-3.19-2.369-3.985l-5.18-3.243a3.211 3.211 0 0 1-1.651-2.764v-2.409c0-.199.078-.39.216-.533l.217-.223a10.025 10.025 0 0 0 2.447-4.144l.063-.239a.768.768 0 0 1 .254-.394l.196-.161c.28-.228.441-.57.44-.93v-2.647a1.199 1.199 0 0 0-.362-.748l-.202-.219a.766.766 0 0 1-.202-.518v-3.8c-.014-.169-.444-5.367-6.9-5.367-6.342 0-6.864 4.86-6.902 5.414l.001 3.753a.764.764 0 0 1-.202.518l-.202.22a1.187 1.187 0 0 0-.362.747v2.647c0 .36.161.7.44.929l.196.161c.125.102.214.24.255.396l.063.239A10.004 10.004 0 0 0 10.3 20.7l.216.223a.769.769 0 0 1 .217.534v2.409a3.194 3.194 0 0 1-1.691 2.788l-5.1 3.196a4.558 4.558 0 0 0-2.409 4.008v.61zm8.433 0v-.613c0-1.66-.908-3.19-2.368-3.984l-5.177-3.24a3.209 3.209 0 0 1-1.655-2.763v-2.413c0-.198.077-.389.215-.532l.215-.222a9.95 9.95 0 0 0 2.448-4.145l.074-.255a.762.762 0 0 1 .246-.375l.2-.167c.276-.23.436-.57.436-.929v-2.642a1.154 1.154 0 0 0-.36-.739l-.211-.236a.765.765 0 0 1-.196-.511v-3.8a5.936 5.936 0 0 0-3.035-4.538A8.317 8.317 0 0 0 23 1.534a9.345 9.345 0 0 0-2.575.344 7.751 7.751 0 0 1 2.573 4.97L23 10.404c.47.478.743 1.114.767 1.783v2.647a2.724 2.724 0 0 1-1 2.113l-.005.005a11.61 11.61 0 0 1-2.829 4.817v2.098c.016.606.357 1.158.893 1.443l5.18 3.242a6.046 6.046 0 0 1 3.127 5.307v.61zm8.434-.613c0-1.66-.909-3.19-2.369-3.984l-5.176-3.24a3.208 3.208 0 0 1-1.655-2.763v-2.413c0-.198.077-.389.214-.532l.215-.222a9.95 9.95 0 0 0 2.448-4.145l.074-.255a.76.76 0 0 1 .246-.375l.2-.167c.277-.23.436-.57.436-.929v-2.642a1.155 1.155 0 0 0-.359-.739l-.212-.236a.765.765 0 0 1-.196-.511v-3.8c-.011-.174-.402-5.368-6.9-5.368a9.356 9.356 0 0 0-2.575.344 7.712 7.712 0 0 1 2.573 4.964l.006 3.57c.47.474.743 1.109.763 1.776v2.642a2.734 2.734 0 0 1-.987 2.107l-.025.029a11.495 11.495 0 0 1-2.821 4.798v2.104c.016.607.358 1.157.895 1.44l5.178 3.241a6.05 6.05 0 0 1 3.127 5.306v.613h6.9z"/></g></g></svg>