<svg xmlns="http://www.w3.org/2000/svg" width="31" height="39" viewBox="0 0 31 39"><g><g><path fill="#358de6" d="M9.731 28.969a1.96 1.96 0 0 0 1.248-1.822v-1.3a1.867 1.867 0 0 0-.626-1.436 7.26 7.26 0 0 1-2.596-5.56 2.575 2.575 0 0 1-1.835-.758 2.607 2.607 0 0 1-.762-1.843V14.3a2.591 2.591 0 0 1 1.059-2.1C4.639 6.208 7.625 0 13.69 0c3.6 0 7.298 1.502 8.375 4.952 2.798 1.114 3.578 4.421 2.9 7.398.557.493.875 1.203.874 1.95v1.95c0 .692-.274 1.355-.762 1.843a2.575 2.575 0 0 1-1.835.757 7.26 7.26 0 0 1-2.596 5.56 1.867 1.867 0 0 0-.626 1.436v1.3a1.96 1.96 0 0 0 1.247 1.823l6.3 2.416A5.395 5.395 0 0 1 31 36.4v1.95c0 .359-.29.65-.646.65H.646A.648.648 0 0 1 0 38.35V36.4a5.395 5.395 0 0 1 3.431-5.015zm1.455-5.551a3.165 3.165 0 0 1 1.085 2.428v1.3a3.27 3.27 0 0 1-2.08 3.038l-6.3 2.416a4.088 4.088 0 0 0-2.6 3.8v1.3h28.417v-1.3a4.088 4.088 0 0 0-2.6-3.8l-6.3-2.416a3.27 3.27 0 0 1-2.079-3.037v-1.3a3.165 3.165 0 0 1 1.083-2.432 6.048 6.048 0 0 0 2.144-4.964c0-.067.001-.14-.004-.201a.651.651 0 0 1 .646-.703h.658c.714 0 1.292-.582 1.292-1.3v-1.95c0-.717-.578-1.3-1.292-1.3a.648.648 0 0 1-.645-.65c0-.359.288-.65.645-.65.169 0 .336.022.499.065.421-2.285-.048-4.762-2.162-5.6-.202-.077-.589-.123-.69-.553C20.214 2.6 16.81 1.3 13.691 1.3c-5.177 0-7.538 5.284-6.252 10.431.101-.016.203-.027.305-.031.356 0 .645.291.645.65 0 .359-.289.65-.645.65a1.283 1.283 0 0 0-.916.379 1.3 1.3 0 0 0-.376.921v1.95c0 .718.578 1.3 1.292 1.3H8.4a.65.65 0 0 1 .646.703c-.004.061-.004.135-.004.2a6.05 6.05 0 0 0 2.144 4.965z"/></g></g></svg>